<?xml version="1.0" standalone="no"?>
<!DOCTYPE svg PUBLIC "-//W3C//DTD SVG 20010904//EN"
 "http://www.w3.org/TR/2001/REC-SVG-20010904/DTD/svg10.dtd">
<svg version="1.0" xmlns="http://www.w3.org/2000/svg"
 width="219.000000pt" height="219.000000pt" viewBox="0 0 219.000000 219.000000"
 preserveAspectRatio="xMidYMid meet">
<metadata>
Created by potrace 1.11, written by Peter Selinger 2001-2013
</metadata>
<g transform="translate(0.000000,219.000000) scale(0.100000,-0.100000)"
fill="#000000" stroke="none">
<path d="M995 2060 c-38 -4 -83 -14 -100 -23 -16 -9 -56 -23 -88 -33 -32 -9
-77 -31 -100 -48 -23 -17 -73 -47 -111 -66 -42 -21 -93 -58 -126 -91 -48 -48
-59 -67 -74 -122 -17 -64 -16 -99 4 -157 5 -14 11 -47 13 -75 6 -74 27 -173
47 -230 10 -27 21 -71 25 -97 5 -36 10 -46 21 -41 8 3 40 2 72 -2 49 -6 54 -9
33 -17 -34 -12 -52 -28 -45 -39 3 -6 20 -1 38 11 48 29 58 25 13 -5 -45 -31
-49 -63 -7 -74 26 -7 85 0 88 9 2 6 11 10 20 10 10 0 28 9 41 19 l24 19 -21
11 c-13 7 -19 17 -16 26 5 11 -3 17 -25 21 -17 4 -28 10 -25 15 16 27 -82 86
-148 88 -9 1 -18 7 -21 14 -3 9 -7 9 -19 -1 -13 -10 -16 -7 -22 25 -9 55 -6
214 4 238 7 17 9 17 9 3 1 -20 21 -25 22 -5 3 47 9 62 29 79 12 10 28 19 36
19 20 2 24 3 67 18 21 7 44 11 51 8 8 -3 19 0 25 6 8 8 11 7 11 -5 0 -13 7
-16 33 -12 27 5 34 2 44 -22 7 -15 9 -32 6 -38 -4 -6 1 -5 10 2 9 8 21 11 27
7 20 -12 24 27 4 42 -16 12 -17 15 -4 23 10 7 18 5 25 -4 6 -7 16 -11 23 -9 6
3 12 0 12 -7 0 -6 9 -20 20 -32 11 -12 20 -16 20 -10 0 7 5 12 11 12 6 0 9 -7
5 -15 -3 -8 2 -18 10 -23 14 -8 14 -12 3 -33 -8 -13 -18 -28 -24 -32 -5 -5 7
-6 28 -3 47 6 46 -12 0 -28 -53 -18 -51 -29 2 -21 28 4 53 8 56 8 4 1 8 -2 9
-8 0 -5 -18 -15 -42 -22 -24 -6 -37 -11 -30 -12 25 -2 8 -55 -25 -79 -18 -12
-33 -32 -33 -42 0 -11 -7 -20 -15 -20 -13 0 -14 -4 -5 -20 6 -11 16 -18 22
-14 6 4 9 1 7 -5 -3 -7 -8 -12 -13 -11 -5 1 -25 -32 -46 -73 -27 -53 -36 -82
-32 -102 3 -19 1 -26 -7 -21 -17 11 -13 -20 5 -35 12 -10 15 -25 11 -63 -2
-28 -1 -57 4 -66 30 -58 49 -110 44 -123 -9 -22 46 -49 63 -30 27 28 73 10 77
-31 3 -22 -3 -30 -36 -46 -21 -11 -39 -18 -39 -14 0 3 -12 -1 -26 -10 -14 -10
-35 -16 -47 -16 -43 4 -46 2 -34 -25 7 -14 21 -28 32 -31 26 -6 143 1 152 9
10 11 43 8 43 -3 0 -6 -16 -18 -35 -27 -19 -9 -35 -23 -35 -31 0 -11 3 -10 16
2 21 22 63 31 77 17 6 -6 19 -11 29 -11 11 0 15 -5 12 -15 -4 -8 -10 -13 -14
-10 -5 3 -11 -3 -15 -14 -3 -11 -14 -22 -23 -24 -14 -4 -14 -5 -1 -6 9 0 21
-12 28 -25 7 -13 20 -23 30 -21 9 1 11 0 5 -2 -12 -4 -13 -73 -1 -73 4 0 7 8
7 18 0 12 3 14 8 4 7 -9 17 -6 43 13 19 13 57 40 84 59 114 77 144 109 231
249 29 47 31 57 37 180 5 102 10 132 22 141 21 15 62 111 86 198 13 51 15 75
8 100 -5 18 -9 58 -8 88 0 30 -4 108 -9 173 -5 66 -8 127 -5 136 2 10 -3 23
-11 30 -9 7 -25 43 -36 80 -33 111 -100 189 -198 231 -29 13 -58 30 -65 39 -7
9 -56 37 -109 64 -104 50 -111 51 -253 37z m195 -840 c11 0 20 -6 20 -14 0 -9
-21 -15 -72 -19 -40 -4 -84 -10 -98 -13 -20 -5 -17 0 16 25 23 17 53 32 68 33
14 1 26 7 26 13 0 5 5 2 11 -7 5 -10 19 -18 29 -18z m35 -50 c3 -5 2 -10 -4
-10 -5 0 -13 5 -16 10 -3 6 -2 10 4 10 5 0 13 -4 16 -10z m-195 -45 c-8 -9 -9
-15 -2 -15 6 0 14 5 17 10 10 16 25 11 25 -8 0 -10 5 -23 12 -30 9 -9 9 -12
-1 -12 -7 0 -10 -4 -7 -8 3 -5 26 -7 51 -6 49 3 58 -7 23 -24 -23 -11 -23 -11
-1 -9 11 2 28 9 37 16 9 7 17 11 17 7 1 -3 2 -9 3 -13 3 -18 18 -33 27 -28 5
4 9 1 9 -4 0 -6 -8 -11 -17 -12 -13 -1 -11 -3 5 -7 30 -9 30 -25 0 -34 -15 -4
-17 -6 -6 -7 14 -1 16 -8 12 -38 -11 -75 -9 -82 29 -123 21 -22 43 -40 47 -40
12 0 24 -40 21 -67 -1 -12 2 -37 7 -57 8 -27 7 -39 -5 -56 l-16 -22 -24 31
c-13 17 -31 31 -39 31 -10 0 -14 12 -14 40 0 31 3 38 15 34 8 -4 15 -11 15
-18 1 -6 7 0 14 13 19 35 -1 63 -64 90 -55 24 -85 28 -59 8 9 -7 16 -16 16
-22 0 -5 11 -16 24 -22 17 -9 19 -13 7 -13 -9 0 -23 7 -32 15 -8 8 -22 15 -31
15 -9 0 -14 4 -11 9 3 4 -3 16 -14 26 -11 10 -20 24 -20 31 0 6 -17 23 -37 35
l-38 24 55 5 c54 6 54 9 -2 29 -16 6 -28 15 -28 21 0 6 12 9 28 8 47 -5 30 22
-26 41 -59 20 -67 26 -77 59 -5 16 -2 22 9 22 9 0 16 5 16 10 0 6 -7 10 -15
10 -22 0 -19 10 13 41 28 30 54 40 32 14z m230 -105 c0 -5 -7 -7 -15 -4 -8 4
-12 10 -9 15 6 11 24 2 24 -11z m-589 -34 c25 -27 -13 -36 -46 -13 -17 13 -17
15 6 38 23 23 24 23 27 4 2 -11 8 -24 13 -29z m456 -422 c-3 -3 -12 -4 -19 -1
-8 3 -5 6 6 6 11 1 17 -2 13 -5z m-43 -19 c-4 -8 -12 -15 -19 -15 -7 0 -15 -5
-17 -11 -5 -16 -86 -31 -106 -20 -20 11 -9 17 43 24 17 3 46 12 65 20 19 8 36
16 37 16 1 1 0 -6 -3 -14z"/>
<path d="M1005 1090 c-3 -5 -1 -10 4 -10 6 0 11 5 11 10 0 6 -2 10 -4 10 -3 0
-8 -4 -11 -10z"/>
<path d="M1015 1060 c3 -5 8 -10 11 -10 2 0 4 5 4 10 0 6 -5 10 -11 10 -5 0
-7 -4 -4 -10z"/>
<path d="M767 723 c-4 -3 -7 -18 -7 -31 0 -31 9 -24 16 12 4 27 2 31 -9 19z"/>
<path d="M1088 213 c-24 -6 -23 -23 0 -23 10 0 19 7 19 15 0 8 -1 14 -1 14 -1
-1 -9 -3 -18 -6z"/>
</g>
</svg>
