<?xml version="1.0" standalone="no"?>
<!DOCTYPE svg PUBLIC "-//W3C//DTD SVG 20010904//EN"
 "http://www.w3.org/TR/2001/REC-SVG-20010904/DTD/svg10.dtd">
<svg version="1.0" xmlns="http://www.w3.org/2000/svg"
 width="512.000000pt" height="512.000000pt" viewBox="0 0 512.000000 512.000000"
 preserveAspectRatio="xMidYMid meet">
<metadata>
Created by potrace 1.11, written by Peter Selinger 2001-2013
</metadata>
<g transform="translate(0.000000,512.000000) scale(0.100000,-0.100000)"
fill="#000000" stroke="none">
<path d="M2290 5109 c-600 -72 -1126 -325 -1540 -739 -422 -423 -678 -963
-741 -1569 -24 -230 -4 -534 52 -804 66 -319 251 -719 453 -982 410 -532 962
-867 1631 -986 150 -27 552 -38 703 -19 407 50 788 187 1112 401 582 384 982
974 1115 1644 41 207 48 297 42 557 -5 252 -18 367 -68 568 -153 614 -544
1166 -1074 1517 -310 205 -635 329 -1045 399 -112 19 -523 28 -640 13z m1383
-1007 c78 -49 72 86 75 -1537 2 -1061 0 -1461 -9 -1492 -6 -23 -26 -56 -46
-75 l-34 -33 -1094 0 -1094 0 -36 35 c-19 19 -40 50 -45 70 -14 51 -13 2892 1
2944 13 46 58 92 103 105 18 6 467 9 1086 8 l1055 -2 38 -23z"/>
<path d="M1658 3874 c-54 -29 -58 -51 -58 -309 0 -264 4 -285 65 -311 51 -21
1719 -21 1769 0 65 27 66 33 66 311 0 274 -1 280 -60 310 -43 22 -1741 22
-1782 -1z"/>
<path d="M1662 2988 c-8 -8 -12 -49 -12 -118 0 -69 4 -110 12 -118 8 -8 58
-12 160 -12 146 0 148 0 164 25 22 33 17 211 -6 225 -23 15 -303 13 -318 -2z"/>
<path d="M2112 2988 c-8 -8 -12 -49 -12 -118 0 -69 4 -110 12 -118 8 -8 58
-12 158 -12 184 0 180 -3 180 132 0 130 3 128 -181 128 -100 0 -149 -4 -157
-12z"/>
<path d="M2562 2988 c-16 -16 -16 -220 0 -236 8 -8 58 -12 159 -12 185 0 179
-4 179 130 0 134 6 130 -179 130 -101 0 -151 -4 -159 -12z"/>
<path d="M3136 2978 c-12 -16 -16 -47 -16 -108 0 -131 -2 -130 179 -130 101 0
151 4 159 12 16 16 16 220 0 236 -8 8 -58 12 -159 12 -141 0 -149 -1 -163 -22z"/>
<path d="M1667 2512 c-14 -15 -17 -40 -17 -119 0 -135 -3 -133 173 -133 177 0
177 0 177 135 0 135 0 135 -178 135 -122 0 -141 -2 -155 -18z"/>
<path d="M2117 2512 c-14 -15 -17 -40 -17 -119 0 -135 -3 -133 173 -133 177 0
177 0 177 135 0 135 0 135 -178 135 -122 0 -141 -2 -155 -18z"/>
<path d="M2567 2512 c-14 -15 -17 -40 -17 -119 0 -136 -4 -133 178 -133 174 0
172 -1 172 135 0 136 2 135 -174 135 -126 0 -145 -2 -159 -18z"/>
<path d="M3144 2516 c-17 -13 -19 -27 -19 -121 0 -139 -5 -135 176 -135 174 0
169 -4 169 135 0 139 5 135 -169 135 -103 0 -142 -4 -157 -14z"/>
<path d="M1672 2164 c-20 -14 -22 -23 -22 -118 0 -139 -4 -136 173 -136 177 0
177 0 177 135 0 134 -1 135 -173 135 -104 0 -137 -3 -155 -16z"/>
<path d="M2122 2164 c-20 -14 -22 -23 -22 -119 0 -139 -5 -135 171 -135 179 0
179 0 179 135 0 134 -1 135 -173 135 -104 0 -137 -3 -155 -16z"/>
<path d="M2572 2164 c-20 -14 -22 -23 -22 -118 0 -139 -4 -136 178 -136 174 0
172 -2 172 137 0 132 -1 133 -173 133 -104 0 -137 -3 -155 -16z"/>
<path d="M3145 2166 c-18 -13 -20 -26 -20 -121 0 -138 -4 -135 173 -135 73 0
142 5 153 10 17 10 19 22 19 118 0 59 -5 114 -10 122 -14 22 -286 28 -315 6z"/>
<path d="M1672 1814 c-20 -14 -22 -23 -22 -119 0 -81 3 -107 16 -119 13 -13
42 -16 159 -16 177 0 175 -2 175 137 0 132 -1 133 -173 133 -104 0 -137 -3
-155 -16z"/>
<path d="M2122 1814 c-20 -14 -22 -23 -22 -119 0 -81 3 -107 16 -119 13 -13
42 -16 159 -16 177 0 175 -2 175 137 0 132 -1 133 -173 133 -104 0 -137 -3
-155 -16z"/>
<path d="M2572 1814 c-20 -14 -22 -23 -22 -119 0 -81 3 -107 16 -119 13 -13
42 -16 159 -16 177 0 175 -2 175 137 0 132 -1 133 -173 133 -104 0 -137 -3
-155 -16z"/>
<path d="M3144 1816 c-18 -14 -19 -30 -22 -283 -2 -203 1 -274 11 -293 12 -25
14 -25 155 -28 87 -1 150 2 162 8 19 10 20 22 20 295 0 282 0 284 -22 299 -31
22 -275 23 -304 2z"/>
<path d="M1672 1464 c-20 -14 -22 -23 -22 -119 0 -81 3 -107 16 -119 13 -13
42 -16 159 -16 177 0 175 -2 175 137 0 132 -1 133 -173 133 -104 0 -137 -3
-155 -16z"/>
<path d="M2122 1464 c-20 -14 -22 -23 -22 -119 0 -81 3 -107 16 -119 13 -13
42 -16 159 -16 177 0 175 -2 175 137 0 132 -1 133 -173 133 -104 0 -137 -3
-155 -16z"/>
<path d="M2572 1464 c-20 -14 -22 -23 -22 -119 0 -81 3 -107 16 -119 13 -13
42 -16 159 -16 177 0 175 -2 175 137 0 132 -1 133 -173 133 -104 0 -137 -3
-155 -16z"/>
</g>
</svg>
